<svg xmlns="http://www.w3.org/2000/svg" width="215.59" height="83.467" viewBox="0 0 215.59 83.467"><defs><style>.a{fill:#002e5f;}.b{fill:#21c6be;}</style></defs><g transform="translate(-71 -23)"><g transform="translate(-36.13 -232.906)"><path class="a" d="M216.45,291.376h15.018v-4.189H218.545v-7.9h9.621l1.257-4.189H218.545v-5.583h12.923v-4.158H216.45a2.08,2.08,0,0,0-1.457.589,2,2,0,0,0-.638,1.474v21.86a2.121,2.121,0,0,0,2.1,2.1Z"/><path class="a" d="M239.88,281.667h5.96l7.521,9.345.289.364h5.387L250.8,281.164a7.71,7.71,0,0,0,1.161-.541,8.293,8.293,0,0,0,3.619-4.2,7.869,7.869,0,0,0,.533-2.895,8.065,8.065,0,0,0-2.34-5.7,8.554,8.554,0,0,0-2.519-1.74,7.9,7.9,0,0,0-3.182-.7H237.785a2.124,2.124,0,0,0-2.094,2.1v23.892h4.189Zm10.882-5.351a4.054,4.054,0,0,1-1.272.856,3.829,3.829,0,0,1-1.514.306h-8.1v-7.9h8.1a3.812,3.812,0,0,1,1.514.307,4.141,4.141,0,0,1,1.28.847,3.857,3.857,0,0,1,.849,1.248,3.9,3.9,0,0,1,.307,1.546,3.8,3.8,0,0,1-.3,1.526A4.124,4.124,0,0,1,250.762,276.316Z"/><path class="a" d="M262.427,288.038a11.484,11.484,0,0,0,4.191,2.635,17.286,17.286,0,0,0,10.992,0,11.142,11.142,0,0,0,6.827-6.826,17.264,17.264,0,0,0,0-10.973,11.106,11.106,0,0,0-6.827-6.844,17.267,17.267,0,0,0-10.992,0,11.1,11.1,0,0,0-6.826,6.843,17.249,17.249,0,0,0,0,10.974A11.485,11.485,0,0,0,262.427,288.038Zm.658-9.687c0-2.955.766-5.223,2.275-6.742s3.778-2.287,6.753-2.287,5.247.77,6.755,2.287,2.274,3.786,2.274,6.742c0,2.978-.765,5.258-2.274,6.774s-3.78,2.287-6.755,2.287-5.246-.77-6.753-2.287S263.085,281.328,263.085,278.351Z"/><path class="a" d="M199.459,322.891l-8.37-18.955h-4.631l11.084,24.989a2.017,2.017,0,0,0,.764.89,2.085,2.085,0,0,0,1.152.333,2.056,2.056,0,0,0,1.916-1.222l11.05-24.99h-4.563Z"/><rect class="a" width="4.19" height="26.018" transform="translate(216.578 303.936)"/><path class="a" d="M244.076,303.936H224.713v4.158H232.3v21.86h4.19v-21.86h7.587Z"/><path class="a" d="M256.287,303.711a2.015,2.015,0,0,0-1.868,1.184L242.1,329.954H246.8l3.118-6.493h12.743l3.247,6.493h4.637l-12.4-25.064A2.009,2.009,0,0,0,256.287,303.711Zm4.321,15.561h-8.644l4.323-8.739Z"/><path class="a" d="M277.473,303.936h-4.19v23.923a2.119,2.119,0,0,0,2.1,2.1h14.77l1.258-4.189H277.473Z"/><rect class="a" width="4.19" height="26.018" transform="translate(294.687 303.936)"/><path class="a" d="M322.72,312.337v-.97a6.8,6.8,0,0,0-2.677-5.687,13.413,13.413,0,0,0-14,0,6.818,6.818,0,0,0-2.657,5.684,6.441,6.441,0,0,0,.891,3.512,6.7,6.7,0,0,0,2.25,2.176,11.5,11.5,0,0,0,2.967,1.214c1.057.278,2.107.524,3.126.736,1.245.249,2.3.5,3.127.749a7.69,7.69,0,0,1,1.822.762,1.875,1.875,0,0,1,.731.752,2.954,2.954,0,0,1,.228,1.255,2.748,2.748,0,0,1-.471,1.718,3.79,3.79,0,0,1-1.318,1.077,5.776,5.776,0,0,1-1.8.535,13.305,13.305,0,0,1-3.8,0,5.752,5.752,0,0,1-1.8-.535,3.6,3.6,0,0,1-1.295-1.068,2.821,2.821,0,0,1-.462-1.727v-.97h-4.189v.97a6.771,6.771,0,0,0,2.661,5.671,13.506,13.506,0,0,0,13.99,0,6.762,6.762,0,0,0,2.68-5.674,6.355,6.355,0,0,0-.9-3.5,6.8,6.8,0,0,0-2.246-2.152,11.551,11.551,0,0,0-2.966-1.213c-1.012-.267-2.062-.515-3.123-.737-1.221-.248-2.258-.5-3.079-.749a7.473,7.473,0,0,1-1.82-.777,2.079,2.079,0,0,1-.776-.784,3.429,3.429,0,0,1,.226-2.969,3.626,3.626,0,0,1,1.3-1.067,5.776,5.776,0,0,1,1.8-.535,13.307,13.307,0,0,1,3.8,0,5.808,5.808,0,0,1,1.8.535,3.784,3.784,0,0,1,1.318,1.075,2.767,2.767,0,0,1,.471,1.72v.97Z"/><path class="a" d="M190.447,288.038a11.472,11.472,0,0,0,4.191,2.635,15.836,15.836,0,0,0,5.495.9,13.42,13.42,0,0,0,9.652-3.468,2.243,2.243,0,0,0,.545-1.457l0-9.454a2.094,2.094,0,0,0-2.092-2.092h-10.02l1.257,4.189h6.668V285.7a9.731,9.731,0,0,1-6.008,1.712c-2.975,0-5.247-.77-6.753-2.287s-2.276-3.8-2.276-6.774c0-2.955.766-5.223,2.276-6.742s3.778-2.287,6.753-2.287a9.847,9.847,0,0,1,6.011,1.7l.776.579,2.51-3.348-.772-.583a13.854,13.854,0,0,0-8.525-2.542,15.825,15.825,0,0,0-5.495.9,11.106,11.106,0,0,0-6.827,6.844,17.264,17.264,0,0,0,0,10.973A11.492,11.492,0,0,0,190.447,288.038Z"/></g><g transform="translate(-36.13 -232.906)"><path class="b" d="M168.759,270.279l-22.25-12.847a11.447,11.447,0,0,0-11.419,0l-22.25,12.847a11.418,11.418,0,0,0-5.71,9.889v13.065a1.618,1.618,0,0,0,1.618,1.618h28.6a.775.775,0,0,0,.775-.775V287.51a.237.237,0,0,1,.237-.237h4.672a.237.237,0,0,1,.237.237v6.566a.775.775,0,0,0,.775.775h28.684a1.74,1.74,0,0,0,1.741-1.74V280.168A11.416,11.416,0,0,0,168.759,270.279Zm-7.111,20.9h-14.7V287.51a3.917,3.917,0,0,0-3.912-3.913H138.36a3.918,3.918,0,0,0-3.913,3.913v3.666h-14.5v-7.318a5.006,5.006,0,0,1,2.5-4.322l15.857-9.155a5.008,5.008,0,0,1,4.991,0l15.857,9.155a5.006,5.006,0,0,1,2.5,4.322Zm9.145,0h-5.47v-7.318a8.69,8.69,0,0,0-4.333-7.505L145.133,267.2a8.692,8.692,0,0,0-8.667,0l-15.857,9.155a8.69,8.69,0,0,0-4.333,7.505v7.318h-5.47V280.167a7.763,7.763,0,0,1,3.872-6.7l22.25-12.847a7.768,7.768,0,0,1,7.743,0l22.251,12.847a7.764,7.764,0,0,1,3.871,6.7Z"/><path class="b" d="M135.567,301.214a.952.952,0,0,0-.951.952v1.772a.952.952,0,0,0,.951.952h24.6v-3.676Z"/><path class="b" d="M173.69,301.217H158.749a1.682,1.682,0,0,0-1.632,1.286v15.924a4.121,4.121,0,0,0,.26,1.222l-.26.148-7.934,4.529-2.808,1.621c-6.732,3.466-4.794,8.482-4.794,8.482,1.256,4.417,4.794,4.944,4.794,4.944a10.464,10.464,0,0,0,2.143-.927l21.01-12.13a9.865,9.865,0,0,0,4.932-8.543V301.988A.771.771,0,0,0,173.69,301.217Zm-2.64,16.556a6.453,6.453,0,0,1-3.227,5.589l-21.43,12.373a3.134,3.134,0,0,1-.988-4.762,4.405,4.405,0,0,1,1.506-1.4l.33-.19,9.876-5.7,2.4-1.388a7.6,7.6,0,0,0,3.463-.114s5.314-.825,4.957-8.387l.005-3.828a.533.533,0,0,0-.534-.535H165.1a.531.531,0,0,0-.532.531c0,1.783.01,4.07.016,4.9a4.925,4.925,0,0,1-.526,2.311l-.02.038c-1.066,2.013-3.112,2.434-3.491.629a3.057,3.057,0,0,1-.066-.631c0-2.374,0-8.725,0-12.586H171.05Z"/><path class="b" d="M107.14,301.988v15.785a9.866,9.866,0,0,0,4.931,8.543l21.01,12.13a10.472,10.472,0,0,0,2.144.927s3.537-.527,4.793-4.944c0,0,1.938-5.016-4.793-8.482l-2.809-1.621-7.934-4.529-.259-.148a4.089,4.089,0,0,0,.259-1.222V302.5a1.68,1.68,0,0,0-1.631-1.286H107.911A.771.771,0,0,0,107.14,301.988Zm3.411,2.638h10.57c0,3.861,0,10.212,0,12.586a3.053,3.053,0,0,1-.067.631c-.378,1.805-2.424,1.384-3.49-.629l-.02-.038a4.9,4.9,0,0,1-.526-2.311c.006-.833.011-3.12.015-4.9a.529.529,0,0,0-.531-.531h-2.318a.534.534,0,0,0-.534.535l0,3.828c-.357,7.562,4.957,8.387,4.957,8.387a7.6,7.6,0,0,0,3.464.114l2.4,1.388,9.876,5.7.331.19a4.393,4.393,0,0,1,1.505,1.4,3.133,3.133,0,0,1-.987,4.762l-21.43-12.373a6.453,6.453,0,0,1-3.227-5.589Z"/></g></g></svg>